<svg xmlns="http://www.w3.org/2000/svg" viewBox="-2 0 56 42" width="56" height="42">
  <!-- Left mug — yellow (tilted right 15°, handle on left/outer side) -->
  <g transform="translate(14,38) rotate(15)">
    <circle cx="-4" cy="-27" r="4"   fill="rgba(255,253,231,0.5)"/>
    <circle cx="0"  cy="-29" r="4.5" fill="rgba(255,253,231,0.5)"/>
    <circle cx="4"  cy="-27" r="3.5" fill="rgba(255,253,231,0.5)"/>
    <path d="M-7,-24 L7,-24 L5,0 L-5,0 Z" fill="#f5c832"/>
    <path d="M-7,-20 C-14,-20 -14,-10 -7,-10" fill="none" stroke="#a07818" stroke-width="3.5" stroke-linecap="round"/>
    <path d="M-7,-24 L7,-24 L5,0 L-5,0 Z" fill="none" stroke="#c9961e" stroke-width="1"/>
    <circle cx="-4" cy="-25" r="3.5" fill="rgba(255,253,231,0.5)"/>
    <circle cx="0"  cy="-27" r="4"   fill="rgba(255,253,231,0.5)"/>
    <circle cx="4"  cy="-25" r="3"   fill="rgba(255,253,231,0.5)"/>
    <path d="M-4,-22 Q-3.5,-14 -4,0" stroke="rgba(255,255,255,0.35)" stroke-width="1.5" stroke-linecap="round" fill="none"/>
  </g>
  <!-- Right mug — amber (tilted left -15°, handle on right/outer side) -->
  <g transform="translate(38,38) rotate(-15)">
    <circle cx="-4" cy="-27" r="4"   fill="rgba(255,253,231,0.5)"/>
    <circle cx="0"  cy="-29" r="4.5" fill="rgba(255,253,231,0.5)"/>
    <circle cx="4"  cy="-27" r="3.5" fill="rgba(255,253,231,0.5)"/>
    <path d="M-7,-24 L7,-24 L5,0 L-5,0 Z" fill="#f5a623"/>
    <path d="M7,-20 C14,-20 14,-10 7,-10" fill="none" stroke="#c97d00" stroke-width="3.5" stroke-linecap="round"/>
    <path d="M-7,-24 L7,-24 L5,0 L-5,0 Z" fill="none" stroke="#9b6200" stroke-width="1"/>
    <circle cx="-4" cy="-25" r="3.5" fill="rgba(255,253,231,0.5)"/>
    <circle cx="0"  cy="-27" r="4"   fill="rgba(255,253,231,0.5)"/>
    <circle cx="4"  cy="-25" r="3"   fill="rgba(255,253,231,0.5)"/>
    <path d="M3,-22 Q3.5,-14 3,0" stroke="rgba(255,255,255,0.35)" stroke-width="1.5" stroke-linecap="round" fill="none"/>
  </g>
  <!-- Foam splash at the clink point -->
  <circle cx="26" cy="9"  r="3"   fill="rgba(255,253,231,0.5)"/>
  <circle cx="22" cy="6"  r="2"   fill="rgba(255,253,231,0.5)"/>
  <circle cx="30" cy="6"  r="2"   fill="rgba(255,253,231,0.5)"/>
  <circle cx="26" cy="4"  r="1.5" fill="rgba(255,253,231,0.5)"/>
</svg>
